<?xml version="1.0" encoding="UTF-8" standalone="no"?>
<svg height="46.95px" width="61.3px" xmlns="http://www.w3.org/2000/svg">
  <g transform="matrix(1.0, 0.0, 0.0, 1.0, 30.65, 23.45)">
    <path d="M3.1 -17.9 L11.35 -23.4 22.4 -23.4 30.65 -17.9 30.65 -8.8 20.4 -8.8 20.4 -13.9 14.6 -13.9 14.6 13.95 20.4 13.95 20.4 5.25 18.15 5.25 18.15 -2.8 18.2 -2.8 18.2 -2.7 30.65 -2.7 30.65 23.5 11.35 23.5 3.1 18.0 3.1 -17.9" fill="#000000" fill-rule="evenodd" stroke="none"/>
    <path d="M-13.8 13.9 L-13.8 2.1 -19.15 2.1 -19.15 13.9 -13.8 13.9 M-14.25 -4.55 L-14.25 -13.9 -19.15 -13.9 -19.15 -4.55 -14.25 -4.55 M-30.65 -23.45 L-10.95 -23.45 -2.85 -17.95 -2.85 -4.8 -8.15 -1.35 -2.25 2.25 -2.25 17.95 -10.5 23.45 -30.65 23.45 -30.65 -23.45" fill="#ff0000" fill-rule="evenodd" stroke="none"/>
  </g>
</svg>
